#N canvas 375 22 850 735 10;
#X declare -lib mrpeach;
#X declare -path /home/hellocatfood/pd-externals/hellocatfood;
#X declare -path ../BiLETools;
#X declare -lib gridflow;
#X obj 35 -178 unpackOSC;
#X obj 35 -157 routeOSC /bile;
#X obj 888 -216 import mrpeach;
#X obj 365 -137 cnv 15 100 230 empty empty empty 20 12 0 14 -4034 -66577
0;
#X obj 372 -132 cnv 15 80 20 empty empty empty 20 12 0 14 -233017 -66577
0;
#X obj 372 -101 grid grid1 80 0 10 80 0 10 0 0.1 0.1 10 10 409.252
-64.8602;
#X obj 372 43 translateXYZ;
#X obj 372 3 pack f f f;
#N canvas 67 89 450 300 translated 0;
#X obj 119 216 - 5;
#X obj 119 196 line;
#X msg 119 176 \$1 100;
#X obj 192 216 - 5;
#X obj 192 196 line;
#X msg 192 176 \$1 100;
#X obj 119 156 inlet;
#X obj 192 156 inlet;
#X obj 119 236 outlet;
#X obj 192 236 outlet;
#X connect 0 0 8 0;
#X connect 1 0 0 0;
#X connect 2 0 1 0;
#X connect 3 0 9 0;
#X connect 4 0 3 0;
#X connect 5 0 4 0;
#X connect 6 0 2 0;
#X connect 7 0 5 0;
#X restore 372 -17 pd translated;
#X obj 372 73 sphere;
#N canvas 554 259 222 299 particles 0;
#X obj 43 20 part_head;
#X obj 58 -40 loadbang;
#X msg 58 0 speed \$1;
#X obj 43 140 part_targetcolor;
#X obj 43 240 part_render;
#X msg 58 -20 1;
#X obj 43 -60 gemhead -2;
#N canvas 385 193 450 300 spread 0;
#X obj 57 220 part_velocity;
#X msg 132 70 symbol sphere;
#X obj 132 -10 loadbang;
#X obj 132 10 t b b;
#X obj 57 140 part_source 1;
#X msg 132 180 symbol sphere;
#X msg 132 120 0 0 0 0 \$1;
#X msg 132 200 0 0 0 0 \$1;
#X msg 159 30 0;
#X obj 57 -30 inlet;
#X obj 57 260 outlet;
#X obj 159 50 outlet;
#X obj 232 70 inlet;
#X connect 0 0 10 0;
#X connect 1 0 4 2;
#X connect 2 0 3 0;
#X connect 2 0 5 0;
#X connect 3 0 1 0;
#X connect 3 0 6 0;
#X connect 3 1 8 0;
#X connect 4 0 0 0;
#X connect 5 0 0 1;
#X connect 6 0 4 3;
#X connect 7 0 0 2;
#X connect 8 0 11 0;
#X connect 9 0 4 0;
#X connect 12 0 6 0;
#X connect 12 0 7 0;
#X restore 43 200 pd spread;
#X obj 43 220 part_killold 5;
#X msg 94 175 0.06;
#X obj 43 260 outlet;
#X msg 136 120 0.4;
#X obj 43 -80 inlet;
#X msg 89 90 0.4 0.9 0.4 1;
#X connect 0 0 3 0;
#X connect 1 0 5 0;
#X connect 1 0 9 0;
#X connect 1 0 13 0;
#X connect 1 0 11 0;
#X connect 2 0 0 0;
#X connect 3 0 7 0;
#X connect 4 0 10 0;
#X connect 5 0 2 0;
#X connect 6 0 0 0;
#X connect 7 0 8 0;
#X connect 8 0 4 0;
#X connect 9 0 7 1;
#X connect 11 0 3 2;
#X connect 12 0 6 0;
#X connect 13 0 3 1;
#X restore 372 23 pd particles;
#X obj 887 -169 path /home/hellocatfood/pd-externals/hellocatfood;
#X symbolatom 65 298 28 0 0 0 - - -;
#N canvas 485 300 522 299 fightouting 0;
#X obj 32 -25 inlet;
#X symbolatom 32 52 6 0 0 0 - - -;
#X symbolatom 82 92 6 0 0 0 - - -;
#X obj 32 -2 routeOSC /fighters;
#X obj 32 284 list2symbol;
#X symbolatom 62 72 6 0 0 0 - - -;
#X obj 32 214 pack s s;
#X obj 32 305 outlet;
#X obj 42 184 outlet;
#X obj 122 184 outlet;
#X obj 82 184 outlet;
#X obj 32 18 unpack s s s s s s;
#X symbolatom 132 112 6 0 0 0 - - -;
#X symbolatom 232 182 6 0 0 0 - - -;
#X symbolatom 232 162 6 0 0 0 - - -;
#X text 74 51 owner of the symbol;
#X text 104 71 symbol being fought over;
#X text 124 91 current control of above sumbol;
#X text 174 111 challenger;
#X obj 332 63 outlet;
#X obj 322 20 bng 15 250 50 0 empty empty empty 17 7 0 10 -262144 -1
-1;
#X obj 327 42 delay 10000;
#X connect 0 0 3 0;
#X connect 2 0 8 0;
#X connect 2 0 6 0;
#X connect 3 0 11 0;
#X connect 3 0 20 0;
#X connect 4 0 7 0;
#X connect 5 0 10 0;
#X connect 6 0 4 0;
#X connect 11 0 1 0;
#X connect 11 1 5 0;
#X connect 11 2 2 0;
#X connect 11 3 12 0;
#X connect 11 4 14 0;
#X connect 11 5 13 0;
#X connect 12 0 9 0;
#X connect 12 0 6 1;
#X connect 20 0 21 0;
#X connect 21 0 19 0;
#X restore 65 140 pd fightouting;
#X msg 92 226 1;
#X msg 131 226 2;
#X msg 171 226 3;
#X msg 211 226 4;
#X msg 146 276 1;
#X msg 185 276 2;
#X msg 225 276 3;
#X msg 265 276 4;
#X obj 119 160 sel x y z;
#X obj 55 -137 cnv 15 78 53 empty empty empty 20 12 0 14 -260097 -66577
0;
#X floatatom 58 -114 3 0 1 0 - - -;
#X floatatom 83 -114 3 0 1 0 - - -;
#X floatatom 109 -114 3 0 1 0 - - -;
#X text 60 -102 x;
#X text 85 -102 y;
#X text 111 -102 z;
#X obj 145 -137 cnv 15 78 53 empty empty empty 20 12 0 14 -260097 -66577
0;
#X floatatom 148 -114 3 0 1 0 - - -;
#X floatatom 173 -114 3 0 1 0 - - -;
#X floatatom 199 -114 3 0 1 0 - - -;
#X text 150 -102 x;
#X text 176 -100 y;
#X text 201 -102 z;
#X obj 235 -137 cnv 15 78 53 empty empty empty 20 12 0 14 -260097 -66577
0;
#X floatatom 238 -114 3 0 1 0 - - -;
#X floatatom 263 -114 3 0 1 0 - - -;
#X floatatom 289 -114 3 0 1 0 - - -;
#X text 240 -102 x;
#X text 265 -102 y;
#X text 291 -102 z;
#N canvas 454 202 450 300 Shelly 0;
#X obj 107 9 inlet;
#X obj 107 51 routeOSC /x;
#X obj 182 51 routeOSC /y;
#X obj 258 51 routeOSC /z;
#X obj 107 95 outlet;
#X obj 182 95 outlet;
#X obj 258 95 outlet;
#X obj 107 75 - 0;
#X obj 182 75 - 0;
#X obj 258 75 - 0;
#X obj 107 30 routeOSC /Shelly;
#X connect 0 0 10 0;
#X connect 1 0 7 0;
#X connect 2 0 8 0;
#X connect 3 0 9 0;
#X connect 7 0 4 0;
#X connect 8 0 5 0;
#X connect 9 0 6 0;
#X connect 10 0 1 0;
#X connect 10 0 2 0;
#X connect 10 0 3 0;
#X coords 0 300 1 299 59 84 0;
#X restore 148 -134 pd Shelly;
#X obj 365 103 cnv 15 110 180 empty empty empty 20 12 0 14 -159808
-66577 0;
#X obj 370 262 curve 2;
#X obj 389 130 switch 3;
#X obj 409 150 switch 3;
#X obj 370 110 gemhead -3;
#X msg 414 239 width \$1;
#X floatatom 414 219 5 0 0 0 - - -;
#X obj 370 217 color;
#X obj 485 -137 cnv 15 100 230 empty empty empty 20 12 0 14 -258113
-66577 0;
#X obj 492 -132 cnv 15 80 20 empty empty empty 20 12 0 14 -233017 -66577
0;
#X obj 492 -102 grid grid1 80 0 10 80 0 10 0 0.1 0.1 10 10 519.748
-75.1419;
#X obj 492 43 translateXYZ;
#X obj 492 3 pack f f f;
#N canvas 66 94 450 300 translated 0;
#X obj 119 216 - 5;
#X obj 119 196 line;
#X msg 119 176 \$1 100;
#X obj 192 216 - 5;
#X obj 192 196 line;
#X msg 192 176 \$1 100;
#X obj 119 156 inlet;
#X obj 192 156 inlet;
#X obj 119 236 outlet;
#X obj 192 236 outlet;
#X connect 0 0 8 0;
#X connect 1 0 0 0;
#X connect 2 0 1 0;
#X connect 3 0 9 0;
#X connect 4 0 3 0;
#X connect 5 0 4 0;
#X connect 6 0 2 0;
#X connect 7 0 5 0;
#X restore 492 -17 pd translated;
#X obj 492 73 sphere;
#N canvas 209 276 222 299 particles 0;
#X obj 43 20 part_head;
#X obj 58 -40 loadbang;
#X msg 58 0 speed \$1;
#X obj 43 140 part_targetcolor;
#X obj 43 240 part_render;
#X msg 58 -20 1;
#X obj 43 -60 gemhead -2;
#N canvas 385 193 450 300 spread 0;
#X obj 57 220 part_velocity;
#X msg 132 70 symbol sphere;
#X obj 132 -10 loadbang;
#X obj 132 10 t b b;
#X obj 57 140 part_source 1;
#X msg 132 180 symbol sphere;
#X msg 132 120 0 0 0 0 \$1;
#X msg 132 200 0 0 0 0 \$1;
#X msg 159 30 0;
#X obj 57 -30 inlet;
#X obj 57 260 outlet;
#X obj 159 50 outlet;
#X obj 232 70 inlet;
#X connect 0 0 10 0;
#X connect 1 0 4 2;
#X connect 2 0 3 0;
#X connect 2 0 5 0;
#X connect 3 0 1 0;
#X connect 3 0 6 0;
#X connect 3 1 8 0;
#X connect 4 0 0 0;
#X connect 5 0 0 1;
#X connect 6 0 4 3;
#X connect 7 0 0 2;
#X connect 8 0 11 0;
#X connect 9 0 4 0;
#X connect 12 0 6 0;
#X connect 12 0 7 0;
#X restore 43 200 pd spread;
#X obj 43 220 part_killold 5;
#X msg 94 175 0.06;
#X obj 43 260 outlet;
#X msg 136 120 0.4;
#X msg 89 90 1 0.1 0 1;
#X obj 43 -80 inlet;
#X connect 0 0 3 0;
#X connect 1 0 5 0;
#X connect 1 0 9 0;
#X connect 1 0 12 0;
#X connect 1 0 11 0;
#X connect 2 0 0 0;
#X connect 3 0 7 0;
#X connect 4 0 10 0;
#X connect 5 0 2 0;
#X connect 6 0 0 0;
#X connect 7 0 8 0;
#X connect 8 0 4 0;
#X connect 9 0 7 1;
#X connect 11 0 3 2;
#X connect 12 0 3 1;
#X connect 13 0 6 0;
#X restore 492 23 pd particles;
#X obj 605 -137 cnv 15 100 230 empty empty empty 20 12 0 14 -4160 -66577
0;
#X obj 612 -132 cnv 15 80 20 empty empty empty 20 12 0 14 -233017 -66577
0;
#X obj 612 -102 grid grid1 80 0 10 80 0 10 0 0.1 0.1 10 10 644 -42.7895
;
#X obj 612 43 translateXYZ;
#X obj 612 3 pack f f f;
#N canvas 67 89 450 300 translated 0;
#X obj 119 216 - 5;
#X obj 119 196 line;
#X msg 119 176 \$1 100;
#X obj 192 216 - 5;
#X obj 192 196 line;
#X msg 192 176 \$1 100;
#X obj 119 156 inlet;
#X obj 192 156 inlet;
#X obj 119 236 outlet;
#X obj 192 236 outlet;
#X connect 0 0 8 0;
#X connect 1 0 0 0;
#X connect 2 0 1 0;
#X connect 3 0 9 0;
#X connect 4 0 3 0;
#X connect 5 0 4 0;
#X connect 6 0 2 0;
#X connect 7 0 5 0;
#X restore 612 -17 pd translated;
#X obj 612 73 sphere;
#N canvas 545 496 222 299 particles 0;
#X obj 43 20 part_head;
#X obj 58 -40 loadbang;
#X msg 58 0 speed \$1;
#X obj 43 140 part_targetcolor;
#X obj 43 240 part_render;
#X msg 58 -20 1;
#X obj 43 -60 gemhead -2;
#N canvas 385 193 450 300 spread 0;
#X obj 57 220 part_velocity;
#X msg 132 70 symbol sphere;
#X obj 132 -10 loadbang;
#X obj 132 10 t b b;
#X obj 57 140 part_source 1;
#X msg 132 180 symbol sphere;
#X msg 132 120 0 0 0 0 \$1;
#X msg 132 200 0 0 0 0 \$1;
#X msg 159 30 0;
#X obj 57 -30 inlet;
#X obj 57 260 outlet;
#X obj 159 50 outlet;
#X obj 232 70 inlet;
#X connect 0 0 10 0;
#X connect 1 0 4 2;
#X connect 2 0 3 0;
#X connect 2 0 5 0;
#X connect 3 0 1 0;
#X connect 3 0 6 0;
#X connect 3 1 8 0;
#X connect 4 0 0 0;
#X connect 5 0 0 1;
#X connect 6 0 4 3;
#X connect 7 0 0 2;
#X connect 8 0 11 0;
#X connect 9 0 4 0;
#X connect 12 0 6 0;
#X connect 12 0 7 0;
#X restore 43 200 pd spread;
#X obj 43 220 part_killold 5;
#X msg 94 175 0.06;
#X obj 43 260 outlet;
#X msg 136 120 0.4;
#X msg 89 90 0 0.1 1 1;
#X obj 43 -80 inlet;
#X connect 0 0 3 0;
#X connect 1 0 5 0;
#X connect 1 0 9 0;
#X connect 1 0 12 0;
#X connect 1 0 11 0;
#X connect 2 0 0 0;
#X connect 3 0 7 0;
#X connect 4 0 10 0;
#X connect 5 0 2 0;
#X connect 6 0 0 0;
#X connect 7 0 8 0;
#X connect 8 0 4 0;
#X connect 9 0 7 1;
#X connect 11 0 3 2;
#X connect 12 0 3 1;
#X connect 13 0 6 0;
#X restore 612 23 pd particles;
#X text 492 -130 Shelly;
#X text 612 -130 Les;
#X obj 855 133 cnv 15 100 230 empty empty empty 20 12 0 14 -159808
-66577 0;
#X obj 862 138 cnv 15 80 20 empty empty empty 20 12 0 14 -233017 -66577
0;
#X obj 862 168 grid grid1 80 0 10 80 0 10 0 0.1 0.1 10 10 909 203;
#X obj 862 313 translateXYZ;
#X obj 862 273 pack f f f;
#N canvas 67 89 450 300 translated 0;
#X obj 119 216 - 5;
#X obj 119 196 line;
#X msg 119 176 \$1 100;
#X obj 192 216 - 5;
#X obj 192 196 line;
#X msg 192 176 \$1 100;
#X obj 119 156 inlet;
#X obj 192 156 inlet;
#X obj 119 236 outlet;
#X obj 192 236 outlet;
#X connect 0 0 8 0;
#X connect 1 0 0 0;
#X connect 2 0 1 0;
#X connect 3 0 9 0;
#X connect 4 0 3 0;
#X connect 5 0 4 0;
#X connect 6 0 2 0;
#X connect 7 0 5 0;
#X restore 862 253 pd translated;
#X obj 862 343 sphere;
#N canvas 519 496 222 299 particles 0;
#X obj 43 20 part_head;
#X obj 58 -40 loadbang;
#X msg 58 0 speed \$1;
#X obj 43 140 part_targetcolor;
#X obj 43 240 part_render;
#X msg 58 -20 1;
#X obj 43 -60 gemhead -2;
#N canvas 385 193 450 300 spread 0;
#X obj 57 220 part_velocity;
#X msg 132 70 symbol sphere;
#X obj 132 -10 loadbang;
#X obj 132 10 t b b;
#X obj 57 140 part_source 1;
#X msg 132 180 symbol sphere;
#X msg 132 120 0 0 0 0 \$1;
#X msg 132 200 0 0 0 0 \$1;
#X msg 159 30 0;
#X obj 57 -30 inlet;
#X obj 57 260 outlet;
#X obj 159 50 outlet;
#X obj 232 70 inlet;
#X connect 0 0 10 0;
#X connect 1 0 4 2;
#X connect 2 0 3 0;
#X connect 2 0 5 0;
#X connect 3 0 1 0;
#X connect 3 0 6 0;
#X connect 3 1 8 0;
#X connect 4 0 0 0;
#X connect 5 0 0 1;
#X connect 6 0 4 3;
#X connect 7 0 0 2;
#X connect 8 0 11 0;
#X connect 9 0 4 0;
#X connect 12 0 6 0;
#X connect 12 0 7 0;
#X restore 43 200 pd spread;
#X obj 43 220 part_killold 5;
#X msg 94 175 0.06;
#X obj 43 260 outlet;
#X msg 136 120 0.4;
#X obj 43 -80 inlet;
#X msg 89 90 1 0 1 1;
#X connect 0 0 3 0;
#X connect 1 0 5 0;
#X connect 1 0 9 0;
#X connect 1 0 13 0;
#X connect 1 0 11 0;
#X connect 2 0 0 0;
#X connect 3 0 7 0;
#X connect 4 0 10 0;
#X connect 5 0 2 0;
#X connect 6 0 0 0;
#X connect 7 0 8 0;
#X connect 8 0 4 0;
#X connect 9 0 7 1;
#X connect 11 0 3 2;
#X connect 12 0 6 0;
#X connect 13 0 3 1;
#X restore 862 293 pd particles;
#X obj 432 73 tgl 15 0 empty empty empty 17 7 0 10 -257985 -1 -1 0
1;
#X obj 553 72 tgl 15 0 empty empty empty 17 7 0 10 -257985 -1 -1 0
1;
#X obj 673 72 tgl 15 0 empty empty empty 17 7 0 10 -257985 -1 -1 0
1;
#X obj 923 342 tgl 15 0 empty empty empty 17 7 0 10 -257985 -1 -1 0
1;
#X text 862 140 Ian;
#X obj 414 180 loadbang;
#X msg 414 199 12;
#N canvas 338 253 450 300 sendshelly 0;
#X msg 38 191 goto \$1 \$2;
#X obj 38 172 pack f f;
#X obj 38 22 inlet;
#X obj 83 22 inlet;
#X obj 38 222 outlet;
#X obj 83 52 * 50;
#X obj 38 52 * 50;
#X obj 38 122 line;
#X obj 83 122 line;
#X obj 133 22 inlet;
#X msg 38 92 \$1 100;
#X msg 83 92 \$1 100;
#X connect 0 0 4 0;
#X connect 1 0 0 0;
#X connect 2 0 6 0;
#X connect 3 0 5 0;
#X connect 5 0 11 0;
#X connect 6 0 10 0;
#X connect 7 0 1 0;
#X connect 8 0 1 1;
#X connect 9 0 5 1;
#X connect 9 0 6 1;
#X connect 10 0 7 0;
#X connect 11 0 8 0;
#X restore 148 -24 pd sendshelly;
#N canvas 488 226 450 300 sendles 0;
#X msg 38 171 goto \$1 \$2;
#X obj 38 152 pack f f;
#X obj 38 22 inlet;
#X obj 83 22 inlet;
#X obj 38 202 outlet;
#X obj 83 52 * 80;
#X obj 38 52 * 80;
#X obj 38 112 line;
#X obj 83 112 line;
#X obj 133 22 inlet;
#X msg 38 82 \$1 100;
#X msg 83 82 \$1 100;
#X connect 0 0 4 0;
#X connect 1 0 0 0;
#X connect 2 0 6 0;
#X connect 3 0 5 0;
#X connect 5 0 11 0;
#X connect 6 0 10 0;
#X connect 7 0 1 0;
#X connect 8 0 1 1;
#X connect 9 0 6 1;
#X connect 9 0 5 1;
#X connect 10 0 7 0;
#X connect 11 0 8 0;
#X restore 238 -24 pd sendles;
#X msg 372 -164 bang;
#X obj 372 -184 metro 300;
#X obj 372 -204 tgl 15 0 empty empty empty 17 7 0 10 -262144 -1 -1
1 1;
#X obj 505 104 cnv 15 180 210 empty empty empty 20 12 0 14 -99865 -66577
0;
#X obj 510 110 gemhead -5;
#X obj 510 237 color;
#X obj 581 150 random 100;
#X obj 581 170 / 100;
#X obj 581 130 metro 1000;
#X obj 651 150 * 10;
#X obj 581 190 line \$1 100;
#X obj 581 110 tgl 15 0 empty empty empty 17 7 0 10 -4034 -1 -1 0 1
;
#X obj 644 170 * 10;
#X obj 581 220 pack f f f;
#X obj 392 -204 loadbang;
#X obj 510 267 rectangle 16 9;
#X obj 43 -309 bng 30 250 50 0 empty empty empty 17 7 0 10 -4034 -1
-1;
#X obj 83 -289 bng 15 250 50 0 empty empty empty 17 7 0 10 -258113
-1 -1;
#X obj 83 -309 bng 15 250 50 0 empty empty empty 17 7 0 10 -4032 -1
-1;
#N canvas 216 254 450 300 window 0;
#X obj 30 149 gemwin;
#X msg 320 39 0 \, destroy;
#X obj 30 19 inlet;
#X obj 150 19 inlet;
#X obj 320 19 inlet;
#X msg 260 108 border 0;
#X msg 30 39 FSAA 8 \, create \, 1;
#X obj 332 162 world_light;
#X obj 332 132 gemhead;
#X msg 150 169 lighting \$1;
#X obj 150 149 inlet;
#X msg 249 14 800 600;
#X msg 160 79 dimen 1024 768;
#X msg 151 109 offset 1024 0;
#X floatatom 408 46 5 0 0 0 - - -;
#X msg 408 67 reset \, fullscreen \$1 \, create \, 1;
#X obj 407 17 inlet;
#X connect 1 0 0 0;
#X connect 2 0 6 0;
#X connect 3 0 13 0;
#X connect 3 0 5 0;
#X connect 3 0 12 0;
#X connect 4 0 1 0;
#X connect 5 0 0 0;
#X connect 6 0 0 0;
#X connect 8 0 7 0;
#X connect 9 0 0 0;
#X connect 10 0 9 0;
#X connect 12 0 0 0;
#X connect 13 0 0 0;
#X connect 14 0 15 0;
#X connect 15 0 0 0;
#X connect 16 0 14 0;
#X restore 43 -270 pd window;
#X text 103 -311 press this first;
#X text 103 -291 destroy window;
#X text 40 -331 create window;
#X obj 116 -264 tgl 15 0 empty empty empty 17 7 0 10 -257985 -1 -1
0 1;
#X text 133 -263 lighting;
#X obj 61 36 hsl 70 15 10 150 0 0 empty empty empty -2 -8 0 10 -260097
-1 -1 2957 1;
#X obj 151 36 hsl 70 15 10 150 0 0 empty empty empty -2 -8 0 10 -260097
-1 -1 1971 1;
#X obj 241 36 hsl 70 15 10 150 0 0 empty empty empty -2 -8 0 10 -260097
-1 -1 3450 1;
#X floatatom 238 56 5 0 0 0 - - -;
#X floatatom 148 56 5 0 0 0 - - -;
#X floatatom 58 56 5 0 0 0 - - -;
#X text 275 55 80;
#X text 185 55 50;
#X text 95 55 70;
#X obj 1062 320 t b b;
#X obj 268 -80 * -1;
#X obj 268 -60 + 1;
#X obj 1055 278 loadbang;
#X obj 238 -80 * -1;
#X obj 238 -60 + 1;
#X obj 58 -80 * -1;
#X obj 58 -60 + 1;
#X obj 58 -4 loadbang;
#X msg 58 16 70;
#X msg 238 16 80;
#X msg 148 16 50;
#X text 372 -131 Holger;
#N canvas 100 427 450 300 Holger 0;
#X obj 107 9 inlet;
#X obj 107 67 routeOSC /x;
#X obj 182 67 routeOSC /y;
#X obj 258 67 routeOSC /z;
#X obj 107 111 outlet;
#X obj 182 111 outlet;
#X obj 258 111 outlet;
#X obj 107 91 - 0;
#X obj 182 91 - 0;
#X obj 258 91 - 0;
#X obj 107 40 routeOSC /Holger;
#X connect 0 0 10 0;
#X connect 1 0 7 0;
#X connect 2 0 8 0;
#X connect 3 0 9 0;
#X connect 7 0 4 0;
#X connect 8 0 5 0;
#X connect 9 0 6 0;
#X connect 10 0 1 0;
#X connect 10 0 2 0;
#X connect 10 0 3 0;
#X coords 0 300 1 299 59 84 0;
#X restore 58 -134 pd Holger;
#X obj 92 206 sel Holger Shelly Les;
#X obj 146 256 sel Holger Shelly Les;
#N canvas 376 246 450 300 sendIain 0;
#X msg 38 181 goto \$1 \$2;
#X obj 38 162 pack f f;
#X obj 83 102 * 70;
#X obj 38 102 * 70;
#X obj 38 22 inlet;
#X obj 83 22 inlet;
#X obj 38 212 outlet;
#X obj 38 142 line;
#X obj 83 142 line;
#X obj 133 22 inlet;
#X msg 38 122 \$1 100;
#X msg 83 122 \$1 100;
#X connect 0 0 6 0;
#X connect 1 0 0 0;
#X connect 2 0 11 0;
#X connect 3 0 10 0;
#X connect 4 0 3 0;
#X connect 5 0 2 0;
#X connect 7 0 1 0;
#X connect 8 0 1 1;
#X connect 9 0 3 1;
#X connect 9 0 2 1;
#X connect 10 0 7 0;
#X connect 11 0 8 0;
#X restore 58 -24 pd sendIain;
#X obj 35 -200 udpreceive 22255;
#N canvas 565 184 450 300 Les 0;
#X obj 107 9 inlet;
#X obj 107 51 routeOSC /x;
#X obj 182 51 routeOSC /y;
#X obj 258 51 routeOSC /z;
#X obj 107 95 outlet;
#X obj 182 95 outlet;
#X obj 258 95 outlet;
#X obj 107 75 - 0;
#X obj 182 75 - 0;
#X obj 258 75 - 0;
#X obj 107 30 routeOSC /Les;
#X obj 53 74 print;
#X connect 0 0 10 0;
#X connect 1 0 7 0;
#X connect 2 0 8 0;
#X connect 3 0 9 0;
#X connect 7 0 4 0;
#X connect 8 0 5 0;
#X connect 9 0 6 0;
#X connect 10 0 1 0;
#X connect 10 0 2 0;
#X connect 10 0 3 0;
#X coords 0 300 1 299 59 84 0;
#X restore 238 -134 pd Les;
#X obj 35 324 BiLE_chat;
#X obj 216 -315 vradio 15 1 0 3 empty empty empty 0 -8 0 10 -262144
-1 -1 0;
#X text 238 -318 deactivate fullscreen;
#X text 237 -301 fullscreen on screen 1;
#X text 237 -285 fullscreen on screen 2;
#X text 387 -301 press ESC to quit;
#X obj 370 239 alpha;
#X msg 289 178 1 1 1 0;
#X msg 119 180 0 0 1 1;
#X msg 174 179 0 1 0 1;
#X msg 230 180 1 0 0 1;
#X text 577 -314 ./OscGroupClient ip-of-oscgroupserver 22242 22253
22254 22255 vis vispass bile bacon;
#X obj 887 -141 path ../BiLETools;
#X obj 887 -194 import gridflow;
#X connect 0 0 1 0;
#X connect 1 0 13 0;
#X connect 1 0 135 0;
#X connect 1 0 44 0;
#X connect 1 0 140 0;
#X connect 1 0 141 0;
#X connect 5 0 8 0;
#X connect 5 1 8 1;
#X connect 6 0 9 0;
#X connect 7 0 47 1;
#X connect 7 0 48 1;
#X connect 8 0 6 1;
#X connect 8 0 7 0;
#X connect 8 1 6 2;
#X connect 8 1 7 1;
#X connect 10 0 6 0;
#X connect 13 0 12 0;
#X connect 13 1 136 0;
#X connect 13 2 22 0;
#X connect 13 3 137 0;
#X connect 13 4 148 0;
#X connect 14 0 47 0;
#X connect 15 0 47 0;
#X connect 16 0 47 0;
#X connect 17 0 47 0;
#X connect 18 0 48 0;
#X connect 19 0 48 0;
#X connect 20 0 48 0;
#X connect 21 0 48 0;
#X connect 22 0 149 0;
#X connect 22 1 150 0;
#X connect 22 2 151 0;
#X connect 24 0 128 0;
#X connect 25 0 138 1;
#X connect 31 0 86 0;
#X connect 32 0 86 1;
#X connect 38 0 126 0;
#X connect 39 0 123 0;
#X connect 44 0 31 0;
#X connect 44 1 32 0;
#X connect 44 2 33 0;
#X connect 47 0 46 1;
#X connect 48 0 46 2;
#X connect 49 0 52 0;
#X connect 50 0 46 0;
#X connect 51 0 50 0;
#X connect 52 0 147 0;
#X connect 55 0 58 0;
#X connect 55 1 58 1;
#X connect 56 0 59 0;
#X connect 57 0 47 2;
#X connect 57 0 48 2;
#X connect 58 0 56 1;
#X connect 58 0 57 0;
#X connect 58 1 56 2;
#X connect 58 1 57 1;
#X connect 60 0 56 0;
#X connect 63 0 66 0;
#X connect 63 1 66 1;
#X connect 64 0 67 0;
#X connect 65 0 47 3;
#X connect 65 0 48 3;
#X connect 66 0 64 1;
#X connect 66 0 65 0;
#X connect 66 1 64 2;
#X connect 66 1 65 1;
#X connect 68 0 64 0;
#X connect 73 0 76 0;
#X connect 73 1 76 1;
#X connect 74 0 77 0;
#X connect 76 0 74 1;
#X connect 76 0 75 0;
#X connect 76 1 74 2;
#X connect 76 1 75 1;
#X connect 78 0 74 0;
#X connect 79 0 10 0;
#X connect 80 0 60 0;
#X connect 81 0 68 0;
#X connect 82 0 78 0;
#X connect 84 0 85 0;
#X connect 85 0 51 0;
#X connect 86 0 55 0;
#X connect 87 0 63 0;
#X connect 88 0 5 0;
#X connect 88 0 55 0;
#X connect 88 0 63 0;
#X connect 89 0 88 0;
#X connect 90 0 89 0;
#X connect 92 0 93 0;
#X connect 93 0 103 0;
#X connect 94 0 95 0;
#X connect 94 0 97 0;
#X connect 94 0 100 0;
#X connect 95 0 98 0;
#X connect 96 0 94 0;
#X connect 97 0 96 1;
#X connect 98 0 101 2;
#X connect 98 0 101 0;
#X connect 98 0 101 1;
#X connect 99 0 96 0;
#X connect 100 0 98 1;
#X connect 101 0 93 1;
#X connect 102 0 90 0;
#X connect 104 0 107 0;
#X connect 105 0 107 3;
#X connect 106 0 107 2;
#X connect 111 0 107 1;
#X connect 113 0 118 0;
#X connect 113 0 138 2;
#X connect 114 0 86 2;
#X connect 114 0 117 0;
#X connect 115 0 87 2;
#X connect 115 0 116 0;
#X connect 122 0 82 0;
#X connect 122 1 82 0;
#X connect 123 0 124 0;
#X connect 124 0 87 1;
#X connect 125 0 122 0;
#X connect 126 0 127 0;
#X connect 127 0 87 0;
#X connect 128 0 129 0;
#X connect 129 0 138 0;
#X connect 130 0 131 0;
#X connect 130 0 133 0;
#X connect 130 0 132 0;
#X connect 131 0 113 0;
#X connect 132 0 115 0;
#X connect 133 0 114 0;
#X connect 135 0 24 0;
#X connect 135 1 25 0;
#X connect 135 2 26 0;
#X connect 136 0 14 0;
#X connect 136 1 15 0;
#X connect 136 2 16 0;
#X connect 136 3 17 0;
#X connect 137 0 18 0;
#X connect 137 1 19 0;
#X connect 137 2 20 0;
#X connect 137 3 21 0;
#X connect 138 0 5 0;
#X connect 139 0 0 0;
#X connect 140 0 38 0;
#X connect 140 1 39 0;
#X connect 140 2 40 0;
#X connect 142 0 107 4;
#X connect 147 0 46 0;
#X connect 148 0 52 1;
#X connect 149 0 52 1;
#X connect 150 0 52 1;
#X connect 151 0 52 1;
